HIERARCHY
ROOT Hips
{
	OFFSET 0.000000 71.427986 0.000000
	CHANNELS 6 Xposition Yposition Zposition Xrotation Yrotation Zrotation
	JOINT Pelvis
	{
		OFFSET 0.000000 0.000000 0.000000
		CHANNELS 3 Xrotation Yrotation Zrotation
		JOINT LeftUpLeg
		{
			OFFSET 6.797100 -2.508499 -1.318700
			CHANNELS 3 Xrotation Yrotation Zrotation
			JOINT LeftLeg
			{
				OFFSET 0.069008 -29.241863 0.690200
				CHANNELS 3 Xrotation Yrotation Zrotation
				JOINT LeftFoot
				{
					OFFSET -0.069008 -29.568123 -0.266800
					CHANNELS 3 Xrotation Yrotation Zrotation
					JOINT LeftToeBase
					{
						OFFSET 3.145500 -8.631000 16.059900
						CHANNELS 3 Xrotation Yrotation Zrotation
						End Site
						{
							OFFSET 0.000000 18.501587 0.000000
						}
					}
				}
			}
			JOINT Left_ShortSleeve
			{
				OFFSET 0.265923 -10.480953 1.153800
				CHANNELS 3 Xrotation Yrotation Zrotation
				End Site
				{
					OFFSET 1.725763 19.823879 0.000000
				}
			}
		}
		JOINT RightUpLeg
		{
			OFFSET -6.797100 -2.508499 -1.318700
			CHANNELS 3 Xrotation Yrotation Zrotation
			JOINT RightLeg
			{
				OFFSET -0.082453 -29.241932 0.688000
				CHANNELS 3 Xrotation Yrotation Zrotation
				JOINT RightFoot
				{
					OFFSET 0.082453 -29.568058 -0.264600
					CHANNELS 3 Xrotation Yrotation Zrotation
					JOINT RightToeBase
					{
						OFFSET -3.115300 -8.682800 16.113400
						CHANNELS 3 Xrotation Yrotation Zrotation
						End Site
						{
							OFFSET 0.000000 18.567114 0.000000
						}
					}
				}
			}
			JOINT Right_ShortSleeve
			{
				OFFSET -0.265923 -10.480953 1.153800
				CHANNELS 3 Xrotation Yrotation Zrotation
				End Site
				{
					OFFSET -1.725766 19.823910 0.000000
				}
			}
		}
	}
	JOINT Spine
	{
		OFFSET 0.000000 13.368103 0.470500
		CHANNELS 3 Xrotation Yrotation Zrotation
		JOINT Spine1
		{
			OFFSET 0.147000 13.837402 0.538800
			CHANNELS 3 Xrotation Yrotation Zrotation
			JOINT Spine2
			{
				OFFSET 0.168000 16.242897 -1.435500
				CHANNELS 3 Xrotation Yrotation Zrotation
				JOINT Neck
				{
					OFFSET 0.217200 18.631500 -1.679100
					CHANNELS 3 Xrotation Yrotation Zrotation
					JOINT Head
					{
						OFFSET 0.000000 6.599396 1.385900
						CHANNELS 3 Xrotation Yrotation Zrotation
						JOINT Hat
						{
							OFFSET -0.532200 27.220596 -10.096100
							CHANNELS 3 Xrotation Yrotation Zrotation
							End Site
							{
								OFFSET 0.000000 22.029861 0.000000
							}
						}
						JOINT HairD
						{
							OFFSET -10.777400 17.437393 -1.325900
							CHANNELS 3 Xrotation Yrotation Zrotation
							JOINT HairD1
							{
								OFFSET -3.290299 -11.051193 1.062200
								CHANNELS 3 Xrotation Yrotation Zrotation
								End Site
								{
									OFFSET 0.000000 11.579437 0.000000
								}
							}
						}
						JOINT HairB
						{
							OFFSET -10.777400 17.437393 1.467900
							CHANNELS 3 Xrotation Yrotation Zrotation
							JOINT HairB1
							{
								OFFSET -1.561200 -12.956299 3.590200
								CHANNELS 3 Xrotation Yrotation Zrotation
								End Site
								{
									OFFSET 0.000000 13.534866 0.000000
								}
							}
						}
						JOINT HairA
						{
							OFFSET 9.713100 17.437393 1.467900
							CHANNELS 3 Xrotation Yrotation Zrotation
							JOINT HairA1
							{
								OFFSET 1.561200 -12.956299 3.590200
								CHANNELS 3 Xrotation Yrotation Zrotation
								End Site
								{
									OFFSET 0.000000 13.534866 0.000000
								}
							}
						}
						JOINT HairC
						{
							OFFSET 9.713100 17.437393 -1.325900
							CHANNELS 3 Xrotation Yrotation Zrotation
							JOINT HairC1
							{
								OFFSET 3.290300 -11.051193 1.062200
								CHANNELS 3 Xrotation Yrotation Zrotation
								End Site
								{
									OFFSET 0.000000 11.579437 0.000000
								}
							}
						}
					}
				}
				JOINT LeftShoulder
				{
					OFFSET 5.101800 15.108002 -2.763700
					CHANNELS 3 Xrotation Yrotation Zrotation
					JOINT LeftArm
					{
						OFFSET 9.825497 2.506317 -1.597400
						CHANNELS 3 Xrotation Yrotation Zrotation
						JOINT LeftForeArm
						{
							OFFSET 21.966244 0.000000 0.000000
							CHANNELS 3 Xrotation Yrotation Zrotation
							JOINT LeftHand
							{
								OFFSET 33.879036 0.000000 0.000000
								CHANNELS 3 Xrotation Yrotation Zrotation
								JOINT LeftHandThumb1
								{
									OFFSET 6.715286 -2.359680 3.363841
									CHANNELS 3 Xrotation Yrotation Zrotation
									JOINT LeftHandThumb2
									{
										OFFSET 2.507072 -1.447464 1.447461
										CHANNELS 3 Xrotation Yrotation Zrotation
										JOINT LeftHandThumb3
										{
											OFFSET 2.898338 -1.673355 1.673357
											CHANNELS 3 Xrotation Yrotation Zrotation
											End Site
											{
												OFFSET -0.295959 3.727692 -0.131651
											}
										}
									}
								}
								JOINT LeftHandIndex1
								{
									OFFSET 14.190811 -0.254547 3.840278
									CHANNELS 3 Xrotation Yrotation Zrotation
									JOINT LeftHandIndex2
									{
										OFFSET 3.551727 0.000000 -0.000000
										CHANNELS 3 Xrotation Yrotation Zrotation
										JOINT LeftHandIndex3
										{
											OFFSET 2.894196 0.000000 0.000000
											CHANNELS 3 Xrotation Yrotation Zrotation
											End Site
											{
												OFFSET -1.000603 2.690872 0.366626
											}
										}
									}
								}
								JOINT LeftHandMiddle1
								{
									OFFSET 13.776489 0.000000 0.000000
									CHANNELS 3 Xrotation Yrotation Zrotation
									JOINT LeftHandMiddle2
									{
										OFFSET 3.438232 0.000000 0.000000
										CHANNELS 3 Xrotation Yrotation Zrotation
										JOINT LeftHandMiddle3
										{
											OFFSET 3.691551 0.000000 0.000000
											CHANNELS 3 Xrotation Yrotation Zrotation
											End Site
											{
												OFFSET -1.082298 3.499527 0.457670
											}
										}
									}
								}
								JOINT LeftHandRing1
								{
									OFFSET 13.966164 -0.268127 -3.067488
									CHANNELS 3 Xrotation Yrotation Zrotation
									JOINT LeftHandRing2
									{
										OFFSET 3.162567 0.000000 0.000000
										CHANNELS 3 Xrotation Yrotation Zrotation
										JOINT LeftHandRing3
										{
											OFFSET 3.324348 0.000000 0.000000
											CHANNELS 3 Xrotation Yrotation Zrotation
											End Site
											{
												OFFSET -0.861900 3.184998 0.405154
											}
										}
									}
								}
								JOINT LeftHandPinky1
								{
									OFFSET 13.131393 -0.168503 -5.746925
									CHANNELS 3 Xrotation Yrotation Zrotation
									JOINT LeftHandPinky2
									{
										OFFSET 2.849182 0.000000 0.000000
										CHANNELS 3 Xrotation Yrotation Zrotation
										JOINT LeftHandPinky3
										{
											OFFSET 2.805038 0.000000 0.000000
											CHANNELS 3 Xrotation Yrotation Zrotation
											End Site
											{
												OFFSET -0.882500 2.642609 0.325652
											}
										}
									}
								}
							}
							JOINT Left_Sleeve
							{
								OFFSET 6.592125 -0.646545 0.805568
								CHANNELS 3 Xrotation Yrotation Zrotation
								End Site
								{
									OFFSET -0.000179 20.275787 -0.000000
								}
							}
						}
					}
				}
				JOINT RightShoulder
				{
					OFFSET -5.731700 15.108002 -2.763700
					CHANNELS 3 Xrotation Yrotation Zrotation
					JOINT RightArm
					{
						OFFSET -9.825497 2.506317 -1.597400
						CHANNELS 3 Xrotation Yrotation Zrotation
						JOINT RightForeArm
						{
							OFFSET -21.966242 0.000000 0.000000
							CHANNELS 3 Xrotation Yrotation Zrotation
							JOINT RightHand
							{
								OFFSET -33.879032 0.000000 0.000000
								CHANNELS 3 Xrotation Yrotation Zrotation
								JOINT RightHandThumb1
								{
									OFFSET -6.715286 -2.359680 3.363841
									CHANNELS 3 Xrotation Yrotation Zrotation
									JOINT RightHandThumb2
									{
										OFFSET -2.507072 -1.447464 1.447461
										CHANNELS 3 Xrotation Yrotation Zrotation
										JOINT RightHandThumb3
										{
											OFFSET -2.898338 -1.673355 1.673357
											CHANNELS 3 Xrotation Yrotation Zrotation
											End Site
											{
												OFFSET 0.295959 3.727692 -0.131651
											}
										}
									}
								}
								JOINT RightHandIndex1
								{
									OFFSET -14.190811 -0.254547 3.840278
									CHANNELS 3 Xrotation Yrotation Zrotation
									JOINT RightHandIndex2
									{
										OFFSET -3.551727 0.000000 -0.000000
										CHANNELS 3 Xrotation Yrotation Zrotation
										JOINT RightHandIndex3
										{
											OFFSET -2.894196 0.000000 0.000000
											CHANNELS 3 Xrotation Yrotation Zrotation
											End Site
											{
												OFFSET 1.000603 2.690872 0.366626
											}
										}
									}
								}
								JOINT RightHandMiddle1
								{
									OFFSET -13.776489 0.000000 0.000000
									CHANNELS 3 Xrotation Yrotation Zrotation
									JOINT RightHandMiddle2
									{
										OFFSET -3.438232 0.000000 0.000000
										CHANNELS 3 Xrotation Yrotation Zrotation
										JOINT RightHandMiddle3
										{
											OFFSET -3.691551 0.000000 0.000000
											CHANNELS 3 Xrotation Yrotation Zrotation
											End Site
											{
												OFFSET 1.082298 3.499527 0.457670
											}
										}
									}
								}
								JOINT RightHandRing1
								{
									OFFSET -13.966164 -0.268127 -3.067488
									CHANNELS 3 Xrotation Yrotation Zrotation
									JOINT RightHandRing2
									{
										OFFSET -3.162567 0.000000 0.000000
										CHANNELS 3 Xrotation Yrotation Zrotation
										JOINT RightHandRing3
										{
											OFFSET -3.324348 0.000000 0.000000
											CHANNELS 3 Xrotation Yrotation Zrotation
											End Site
											{
												OFFSET 0.861900 3.184998 0.405154
											}
										}
									}
								}
								JOINT RightHandPinky1
								{
									OFFSET -13.131393 -0.168503 -5.746925
									CHANNELS 3 Xrotation Yrotation Zrotation
									JOINT RightHandPinky2
									{
										OFFSET -2.849182 0.000000 0.000000
										CHANNELS 3 Xrotation Yrotation Zrotation
										JOINT RightHandPinky3
										{
											OFFSET -2.805038 0.000000 0.000000
											CHANNELS 3 Xrotation Yrotation Zrotation
											End Site
											{
												OFFSET 0.882500 2.642609 0.325652
											}
										}
									}
								}
							}
							JOINT Right_Sleeve
							{
								OFFSET -6.592125 -0.646545 0.805568
								CHANNELS 3 Xrotation Yrotation Zrotation
								End Site
								{
									OFFSET 0.000179 20.275787 -0.000000
								}
							}
						}
					}
				}
				JOINT Bind_Right_JacketString
				{
					OFFSET -3.534800 11.969597 7.200700
					CHANNELS 3 Xrotation Yrotation Zrotation
					JOINT Bind_Right_JacketString1
					{
						OFFSET -0.319900 -6.102600 2.794100
						CHANNELS 3 Xrotation Yrotation Zrotation
						End Site
						{
							OFFSET 0.000000 6.719452 0.000000
						}
					}
				}
				JOINT Bind_Left_JacketString
				{
					OFFSET 2.904800 11.969597 7.200700
					CHANNELS 3 Xrotation Yrotation Zrotation
					JOINT Bind_Left_JacketString1
					{
						OFFSET 0.364800 -5.904503 3.186800
						CHANNELS 3 Xrotation Yrotation Zrotation
						End Site
						{
							OFFSET 0.000000 6.719513 0.000000
						}
					}
				}
				JOINT HairE
				{
					OFFSET 5.915200 17.612701 -11.592200
					CHANNELS 3 Xrotation Yrotation Zrotation
					JOINT HairE1
					{
						OFFSET 0.289200 -7.171898 -1.284500
						CHANNELS 3 Xrotation Yrotation Zrotation
						End Site
						{
							OFFSET 0.000000 7.291756 0.000000
						}
					}
				}
				JOINT HairF
				{
					OFFSET -0.864800 17.612701 -11.592200
					CHANNELS 3 Xrotation Yrotation Zrotation
					JOINT HairF1
					{
						OFFSET 0.000000 -14.087097 -2.127501
						CHANNELS 3 Xrotation Yrotation Zrotation
						End Site
						{
							OFFSET 0.000000 14.246841 0.000000
						}
					}
				}
				JOINT HairG
				{
					OFFSET -8.087700 17.612701 -11.592200
					CHANNELS 3 Xrotation Yrotation Zrotation
					JOINT HairG1
					{
						OFFSET -0.293600 -6.081398 -0.910100
						CHANNELS 3 Xrotation Yrotation Zrotation
						End Site
						{
							OFFSET 0.000000 6.156120 0.000000
						}
					}
				}
			}
		}
	}
	JOINT Pouch
	{
		OFFSET 0.000000 4.394501 10.847300
		CHANNELS 3 Xrotation Yrotation Zrotation
		End Site
		{
			OFFSET 0.000000 21.880577 0.000000
		}
	}
	JOINT Bag
	{
		OFFSET -13.229000 4.813004 -0.593300
		CHANNELS 3 Xrotation Yrotation Zrotation
		End Site
		{
			OFFSET 0.000000 21.880577 0.000000
		}
	}
	JOINT OccupyGuyFacialAnim_Joint
	{
		OFFSET 1.000000 -70.206398 -1.655000
		CHANNELS 3 Xrotation Yrotation Zrotation
		End Site
		{
			OFFSET 0.000000 21.880577 0.000000
		}
	}
}
MOTION
Frames: 4
Frame Time: 0.033333
-0.218707 65.841568 1.297421 -2.630328 -12.317670 0.850509 0.000000 0.000000 -0.000000 -16.328240 34.929225 8.640620 58.482340 9.659526 -7.137032 -29.759633 17.830547 0.910671 0.000000 0.000000 -0.000001 -0.000000 0.000003 0.000001 -43.026285 -4.373988 2.956199 60.764436 10.212697 0.447106 -2.126434 -9.405018 6.178442 -0.000000 -0.000000 -0.000000 -0.000005 -0.000000 -0.000001 6.911854 -7.591838 1.092514 0.961612 -3.446684 0.774386 0.955700 -3.445500 0.806050 -0.037396 2.367078 0.310418 -14.133756 13.825240 3.791473 -0.000000 -0.000000 0.000000 -0.000000 -0.000000 0.000000 -0.000000 -0.000000 0.000000 -0.000000 -0.000000 0.000000 -0.000000 -0.000000 -0.000000 -0.000000 -0.000000 0.000000 -0.000000 -0.000000 -0.000000 -0.000000 -0.000000 0.000000 -0.000000 -0.000000 0.000000 1.290278 -5.989778 -10.593740 12.279017 -45.903591 -29.146166 0.000016 -104.515459 -0.000003 -7.701342 -16.278233 11.221974 -6.000720 -6.126807 4.616746 7.832748 26.600964 2.529791 -0.000003 -0.000001 0.000002 -0.837877 -3.351059 -12.390645 1.262898 3.634802 -38.308274 0.000002 -0.000001 -0.000002 -0.604360 1.207046 -17.983683 3.206178 5.221003 -63.085574 0.000004 0.000005 0.000003 0.781066 5.166765 -28.610051 4.473745 5.687188 -76.362089 -0.000002 0.000001 0.000000 0.632662 4.876832 -25.420648 2.604980 4.870670 -56.258079 0.000002 -0.000003 0.000001 -0.000002 0.000000 -0.000000 5.450298 -10.064836 4.692956 13.466315 25.458823 50.534852 0.004514 89.689857 -0.004233 6.153271 6.029885 -13.072278 -4.717928 0.209004 -6.846501 7.829532 -26.974176 -3.051230 0.000001 0.000001 -0.000001 3.681480 -2.506467 12.472155 0.889964 -2.740120 35.980876 -0.000003 0.000002 -0.000005 0.664979 -4.597636 29.787380 1.895778 -3.751653 53.604441 -0.000000 0.000002 0.000003 0.904484 -4.971939 35.259062 4.187217 -4.633461 84.201944 -0.000000 0.000000 0.000002 -2.847215 -6.676393 30.900548 3.315983 -4.460260 73.245139 -0.000001 -0.000000 0.000002 0.000001 0.000001 0.000000 -0.000000 0.000000 -0.000000 -0.000000 0.000000 -0.000000 -0.000000 0.000000 -0.000000 -0.000000 0.000000 -0.000000 -0.000000 0.000000 -0.000000 -0.000000 0.000000 -0.000000 -0.000000 0.000000 -0.000000 -0.000000 0.000000 -0.000000 -0.000000 0.000000 -0.000000 -0.000000 0.000000 -0.000000 0.000000 0.000000 -0.000000 0.000000 0.000000 -0.000000 0.000000 0.000000 -0.000000 
-3.560756 65.636681 -2.200557 -2.605062 -15.104741 0.776654 -0.000000 -0.000000 0.000000 -24.722013 34.090072 15.708552 62.766877 7.941376 -7.257643 -26.136600 20.589315 -0.117121 0.000001 -0.000003 0.000001 -0.000003 -0.000000 -0.000001 -42.653497 -2.477846 -2.352710 63.403601 8.143011 -1.852727 -3.279174 -9.232333 6.535789 -0.000000 0.000000 -0.000001 0.000001 -0.000001 -0.000000 7.126550 -5.312839 0.708270 1.051493 -2.413513 0.536797 1.049095 -2.412756 0.563156 0.537252 2.527105 -0.026822 -13.800884 13.374538 3.481830 -0.000001 -0.000000 -0.000000 -0.000001 -0.000000 -0.000000 -0.000001 -0.000000 0.000000 -0.000001 -0.000000 -0.000000 0.000000 -0.000000 -0.000000 -0.000001 -0.000000 -0.000000 0.000000 -0.000000 -0.000000 -0.000001 -0.000000 -0.000000 -0.000001 -0.000000 -0.000000 1.337533 -4.904432 -10.943874 18.720403 -46.605799 -25.768671 -0.000067 -102.547477 -0.000076 -2.644936 -15.658035 14.221044 -6.000722 -6.126809 4.616746 7.832753 26.600961 2.529790 0.000001 0.000001 0.000000 0.083455 -3.481035 -14.324411 1.361846 3.756433 -39.843707 -0.000006 -0.000000 0.000003 -0.749105 1.132318 -19.976469 3.247124 5.241501 -63.534625 -0.000002 0.000002 0.000003 1.245517 5.978392 -29.701624 4.510489 5.695946 -76.732661 -0.000002 0.000001 0.000000 0.618799 5.726896 -25.327141 2.717321 4.943582 -57.571221 -0.000002 0.000005 0.000000 0.000003 -0.000000 -0.000000 5.483531 -8.079205 5.994787 5.709691 22.632657 52.088013 0.000097 85.006936 -0.000087 6.247543 0.469089 -6.249363 -5.264468 2.361435 -6.118522 7.851698 -27.168338 -3.063697 0.000002 -0.000003 -0.000002 4.300431 -1.936585 14.437095 0.854110 -2.690081 35.224129 -0.000004 0.000000 -0.000001 0.693048 -4.648491 29.137891 1.654684 -3.561725 49.825564 0.000002 -0.000002 -0.000001 0.986300 -5.083664 36.963956 3.260271 -4.443179 72.527532 -0.000001 0.000000 -0.000003 -2.471421 -6.963436 33.253664 2.884597 -4.307346 67.606257 -0.000000 0.000000 -0.000001 0.000000 0.000001 0.000001 -0.000001 0.000001 -0.000000 -0.000000 -0.000001 0.000001 -0.000001 0.000001 -0.000000 -0.000001 0.000001 -0.000000 -0.000001 0.000001 -0.000000 -0.000000 -0.000001 0.000000 -0.000001 0.000001 -0.000000 -0.000001 0.000001 -0.000000 -0.000001 0.000001 -0.000000 -0.000000 -0.000001 0.000000 -0.000000 -0.000000 0.000000 -0.000000 -0.000000 0.000000 -0.000000 -0.000000 0.000000 
-6.961133 65.913895 -5.562087 -2.202431 -17.117207 0.715896 0.000000 0.000000 0.000000 -31.475492 32.823201 21.792518 63.532022 5.643123 -6.689712 -20.771725 22.494163 -0.827658 0.000001 0.000001 -0.000000 0.000001 -0.000002 -0.000001 -41.070614 -0.713493 -8.946986 62.771426 6.993799 -3.893351 -1.080460 -8.898759 12.504177 0.000001 0.000001 -0.000000 -0.000000 -0.000000 -0.000001 6.927125 -3.010920 1.099809 0.948536 -1.414814 0.534584 0.949015 -1.414041 0.552897 1.029576 2.706008 -0.427525 -12.566670 12.805274 2.535245 -0.000001 0.000000 -0.000000 -0.000001 0.000000 -0.000000 -0.000001 0.000000 0.000000 -0.000001 0.000000 -0.000000 -0.000001 0.000001 -0.000000 -0.000001 0.000000 -0.000000 -0.000001 0.000001 -0.000000 -0.000001 0.000000 -0.000000 -0.000001 0.000000 -0.000000 1.421059 -3.307538 -11.915339 23.721418 -46.335409 -23.860916 -0.000029 -96.772470 -0.000077 3.583039 -14.654333 17.641714 -6.000720 -6.126811 4.616744 7.832753 26.600959 2.529791 -0.000002 -0.000002 -0.000002 1.100802 -3.678593 -16.487643 1.485805 3.899840 -41.699951 0.000003 0.000001 0.000002 -0.924739 1.064933 -22.214550 3.308381 5.271421 -64.203204 0.000002 0.000000 0.000001 1.793980 6.853753 -30.941819 4.561735 5.707732 -77.248531 -0.000001 0.000003 0.000001 0.581689 6.642846 -25.214504 2.853503 5.027199 -59.138209 0.000001 -0.000003 0.000001 0.000002 0.000000 -0.000000 5.454756 -6.866937 6.711072 0.246531 20.941088 52.942094 0.000056 81.217472 -0.000081 9.123932 -3.760278 2.098391 -5.875984 4.638435 -5.321439 7.872982 -27.354696 -3.075590 -0.000002 -0.000004 0.000001 4.920340 -1.278061 16.535318 0.810652 -2.627522 34.287222 -0.000000 0.000002 -0.000001 0.717428 -4.697665 28.345715 1.403500 -3.333890 45.650802 0.000004 -0.000003 0.000000 1.072232 -5.193892 38.684621 2.324682 -4.032069 59.917220 -0.000001 -0.000001 -0.000002 -2.058761 -7.242453 35.720762 2.435471 -4.094132 61.480718 -0.000001 0.000000 -0.000001 -0.000001 -0.000001 -0.000001 -0.000001 -0.000001 -0.000000 -0.000001 -0.000001 0.000000 -0.000001 -0.000001 -0.000000 -0.000001 -0.000001 -0.000000 -0.000001 -0.000001 -0.000000 -0.000001 -0.000001 -0.000000 -0.000001 -0.000001 -0.000000 -0.000001 -0.000001 -0.000000 -0.000001 -0.000001 -0.000000 -0.000001 -0.000001 -0.000000 0.000000 0.000000 0.000000 0.000000 0.000000 0.000000 0.000000 0.000000 0.000000 
-10.600852 66.599274 -8.648477 -1.940720 -17.844212 0.496363 -0.000000 -0.000000 -0.000000 -36.026362 30.303907 25.862764 61.661363 5.100793 -5.273054 -13.711231 21.720405 -1.554884 0.000001 0.000002 0.000001 -0.000000 0.000000 0.000000 -37.113301 -0.473616 -14.856823 59.922008 5.457425 -5.458383 -1.144341 -5.381031 14.632133 0.000000 -0.000002 0.000001 0.000000 0.000001 -0.000000 6.277719 -1.650544 1.858420 0.766243 -0.860764 0.604522 0.769451 -0.859890 0.617292 1.646073 2.897600 -0.772624 -10.899674 12.192734 1.427144 -0.000000 0.000000 0.000000 -0.000000 0.000000 0.000000 -0.000000 0.000000 0.000000 -0.000000 0.000000 -0.000000 -0.000000 0.000000 -0.000000 -0.000000 0.000000 -0.000000 -0.000000 0.000000 -0.000000 -0.000000 0.000000 0.000000 -0.000000 0.000000 0.000000 1.506674 -2.041424 -12.635383 26.640436 -42.299700 -25.796634 0.020858 -90.925350 0.020698 9.777988 -12.843281 18.838951 -6.000719 -6.126809 4.616745 7.832747 26.600962 2.529787 0.000002 0.000001 -0.000001 2.098908 -3.962479 -18.662034 1.615615 4.040484 -43.574681 0.000000 -0.000001 -0.000004 -1.116496 1.009757 -24.465295 3.371118 5.301157 -64.884120 0.000001 -0.000002 -0.000003 2.382992 7.710812 -32.202136 4.613910 5.719224 -77.772571 0.000001 0.000001 -0.000001 0.540880 7.561731 -25.094100 2.993208 5.107773 -60.719733 -0.000002 -0.000002 0.000004 0.000004 -0.000003 -0.000001 5.323248 -5.594083 6.802764 -2.676555 21.690558 53.185204 0.000194 77.992393 -0.000172 13.052497 -4.553461 10.624405 -6.451281 6.665319 -4.585965 7.895908 -27.555642 -3.088373 0.000002 0.000000 0.000005 5.420287 -0.668043 18.350792 0.783177 -2.586795 33.683051 -0.000001 -0.000004 0.000001 0.743890 -4.752518 27.816605 1.209396 -3.132708 42.210146 0.000000 -0.000002 -0.000001 1.160016 -5.299807 40.378647 1.607341 -3.521279 49.059015 -0.000005 0.000001 -0.000002 -1.683823 -7.469772 37.991148 2.072362 -3.875332 56.258977 0.000002 0.000006 0.000001 -0.000000 0.000000 -0.000001 0.000000 0.000001 -0.000000 0.000001 -0.000001 0.000000 0.000000 0.000001 0.000000 0.000000 0.000001 0.000000 0.000000 0.000001 -0.000000 0.000001 -0.000001 0.000000 0.000000 0.000001 0.000000 0.000000 0.000001 0.000000 0.000000 0.000001 -0.000000 0.000001 -0.000001 0.000000 -0.000000 -0.000000 -0.000000 -0.000000 -0.000000 -0.000000 -0.000000 -0.000000 -0.000000 
